<svg id="Layer_1" data-name="Layer 1" xmlns="http://www.w3.org/2000/svg" viewBox="0 0 1238.74 294.2">
  <defs>
    <style>
      .cls-1 {
        fill: #bf9676;
      }

      .cls-2 {
        fill: #e6c5ac;
      }

      .cls-3, .cls-5 {
        fill: #d9b498;
      }

      .cls-4 {
        fill: #ffd7d7;
      }

      .cls-5 {
        stroke: #bf9676;
        stroke-miterlimit: 10;
        stroke-width: 5px;
      }
    </style>
  </defs>
  <g>
    <path class="cls-1" d="M48.64,82.09A64,64,0,0,1,17.48,73.6C-17.95,52.49,5.93,7.13,40.72,3.33,67,.47,84.47,26.67,84,50.49c-.19,9.64-8.24,20.29-15.62,25.84C63,80.38,56,82.05,48.64,82.09Z"/>
    <path class="cls-2" d="M52.46,76.48a45.38,45.38,0,0,1-22-6.07c-9.92-5.93-14.31-15.29-12-25.67C21.21,31.89,33.51,21.08,47,19.6a24.77,24.77,0,0,1,19.89,6.69c7.16,6.55,11.48,17,11.27,27.21C78,60.35,72.41,68.13,66.92,72.26c-3.61,2.73-8.54,4.18-14.27,4.22h-.19ZM49.84,21.23a23.59,23.59,0,0,0-2.63.15C34.43,22.78,22.8,33,20.15,45.12c-2.09,9.59,2,18.25,11.22,23.76a43.39,43.39,0,0,0,21.27,5.81h0c5.34,0,9.91-1.36,13.21-3.85C71,67,76.26,59.75,76.39,53.46c.2-9.73-3.89-19.64-10.68-25.85A23.16,23.16,0,0,0,49.84,21.23Z"/>
    <path class="cls-1" d="M355.34,82.09A64,64,0,0,0,386.5,73.6c35.43-21.11,11.55-66.47-23.24-70.27C337,.47,319.51,26.67,320,50.49c.19,9.64,8.24,20.29,15.62,25.84C341,80.38,348,82.05,355.34,82.09Z"/>
    <path class="cls-2" d="M353.36,75.88h-.19c-5.72,0-10.66-1.49-14.27-4.21-5.49-4.14-11.12-11.91-11.26-18.77-.21-10.23,4.11-20.66,11.27-27.21A24.76,24.76,0,0,1,358.8,19c13.51,1.47,25.81,12.28,28.61,25.13,2.27,10.39-2.12,19.75-12,25.68A45.45,45.45,0,0,1,353.36,75.88Zm-.18-1.79h.18a43.47,43.47,0,0,0,21.09-5.81c9.22-5.51,13.31-14.17,11.22-23.76C383,32.39,371.39,22.18,358.61,20.78A23.07,23.07,0,0,0,340.11,27c-6.79,6.21-10.88,16.12-10.68,25.85.13,6.29,5.4,13.51,10.54,17.38,3.3,2.49,7.87,3.82,13.21,3.85Z"/>
    <path class="cls-1" d="M120,12.3C63.35,32.18,30.48,78.38,30.35,140.55c-.07,30.18,12,64.3,30.59,89.66,22.89,31.26,61.63,49.35,101.21,58.31,47.35,10.72,103.19,7,145.62-17.44,71.7-41.31,86.71-155.95,36.35-215.9C297.92.18,211.67-7.69,144.43,5.67A178.75,178.75,0,0,0,120,12.3Z"/>
    <path class="cls-3" d="M344.17,181.07c-.49-2.85-5.41-17.09-14.77-24,0,0,39.89-67.6-12.36-108.54-56.18-44-115,11.31-115,11.31S143.22,4.54,87,48.56C34.78,89.5,74.68,157.1,74.68,157.1c-9.36,6.88-14.28,21.12-14.77,24C55,209.52,71.73,231.76,91.79,246.93c31.51,23.82,66.57,36.24,111.37,36.24S282,275.51,313.47,251.7C333.54,236.53,349.08,209.52,344.17,181.07Z"/>
    <ellipse cx="106.14" cy="135.5" rx="7.12" ry="11.1"/>
    <ellipse cx="304.97" cy="135.5" rx="7.12" ry="11.1"/>
    <ellipse cx="206.71" cy="177.57" rx="27.98" ry="16.74"/>
    <path d="M206.83,247.91c-10.32,0-18.27-6.49-18.39-6.6a.88.88,0,0,1-.11-1.25.9.9,0,0,1,1.26-.12c.72.61,17.87,14.57,34.19-1.25a.88.88,0,0,1,1.26,0,.9.9,0,0,1,0,1.26C218.84,246,212.48,247.91,206.83,247.91Z"/>
    <ellipse class="cls-4" cx="88.45" cy="177.57" rx="18.06" ry="9.44"/>
    <ellipse class="cls-4" cx="315.68" cy="177.57" rx="18.06" ry="9.44"/>
  </g>
  <g>
    <path class="cls-5" d="M573.47,101.48,545,209.31H518.05l-17.9-69.18A57.87,57.87,0,0,1,498.42,128h-.3a73.86,73.86,0,0,1-1.95,12.11l-18.35,69.18H449.77L421.42,101.48H448l15.19,71.81a85.89,85.89,0,0,1,1.43,12.33H465A59.19,59.19,0,0,1,467.22,173l19.55-71.51h26l17.67,72.41a88.89,88.89,0,0,1,1.73,11.58h.3a76.62,76.62,0,0,1,1.58-12l14.89-72Z"/>
    <path class="cls-5" d="M596.85,120.13a13.89,13.89,0,0,1-9.85-3.58,11.52,11.52,0,0,1-3.83-8.76A11.12,11.12,0,0,1,587,99.07a16.1,16.1,0,0,1,19.74,0,11.15,11.15,0,0,1,3.8,8.72,11.49,11.49,0,0,1-3.8,8.88A14.15,14.15,0,0,1,596.85,120.13Zm11.73,89.18H584.82v-77h23.76Z"/>
    <path class="cls-5" d="M652.35,209.31H628.59v-114h23.76Z"/>
    <path class="cls-5" d="M667.31,207.28V188a50.65,50.65,0,0,0,11.7,5.26A38.8,38.8,0,0,0,690,195q6.32,0,10-1.73c2.44-1.15,3.65-2.91,3.65-5.26a4.86,4.86,0,0,0-1.65-3.76,15.26,15.26,0,0,0-4.25-2.63,46.34,46.34,0,0,0-5.68-2c-2-.61-4-1.28-5.94-2a56.21,56.21,0,0,1-8.08-3.72,23.55,23.55,0,0,1-5.87-4.62,18.32,18.32,0,0,1-3.61-6.09,24.52,24.52,0,0,1-1.24-8.2,21.11,21.11,0,0,1,2.82-11.13,23,23,0,0,1,7.52-7.63,34.43,34.43,0,0,1,10.75-4.36,56,56,0,0,1,12.6-1.39,69.44,69.44,0,0,1,10.38.79,76.77,76.77,0,0,1,10.37,2.29v18.35a37.33,37.33,0,0,0-9.66-4A40.58,40.58,0,0,0,702,146.59a22.05,22.05,0,0,0-4.4.42,14.09,14.09,0,0,0-3.65,1.2,6.71,6.71,0,0,0-2.48,2,4.69,4.69,0,0,0-.9,2.82,5.22,5.22,0,0,0,1.35,3.61,11.6,11.6,0,0,0,3.54,2.59,35.08,35.08,0,0,0,4.84,2c1.78.58,3.55,1.16,5.31,1.77a68.2,68.2,0,0,1,8.57,3.61,27.36,27.36,0,0,1,6.58,4.58,18.07,18.07,0,0,1,4.21,6.17,24.59,24.59,0,0,1-1.51,20.11,23.74,23.74,0,0,1-7.89,7.9,35.84,35.84,0,0,1-11.36,4.44,63.34,63.34,0,0,1-13.34,1.39A69,69,0,0,1,667.31,207.28Z"/>
    <path class="cls-5" d="M776.8,211.19q-19.26,0-30.27-10.79t-11-29.29q0-19.11,11.43-29.89t30.91-10.79q19.17,0,30.08,10.79t10.9,28.53q0,19.19-11.24,30.31T776.8,211.19Zm.6-62.57q-8.43,0-13.09,5.79t-4.66,16.4q0,22.19,17.9,22.18,17.07,0,17.07-22.78Q794.62,148.63,777.4,148.62Z"/>
    <path class="cls-5" d="M908.61,209.31H884.93V166.52q0-17.9-12.79-17.9A12.68,12.68,0,0,0,862,153.36a18.09,18.09,0,0,0-4,12v43.92H834.25v-77H858v12.18h.3q8.49-14.07,24.74-14.06,25.56,0,25.56,31.73Z"/>
    <path class="cls-5" d="M1049.83,209.31H963v-14l55.27-74.07H967V101.48h82.71v13.61l-54.07,74.52h54.22Z"/>
    <path class="cls-5" d="M1100.06,211.19q-19.24,0-30.27-10.79t-11-29.29q0-19.11,11.43-29.89t30.9-10.79q19.19,0,30.08,10.79t10.91,28.53q0,19.19-11.25,30.31T1100.06,211.19Zm.6-62.57q-8.42,0-13.08,5.79t-4.66,16.4q0,22.19,17.89,22.18,17.07,0,17.07-22.78Q1117.88,148.63,1100.66,148.62Z"/>
    <path class="cls-5" d="M1194.21,211.19q-19.26,0-30.27-10.79t-11-29.29q0-19.11,11.43-29.89t30.91-10.79q19.17,0,30.08,10.79t10.9,28.53q0,19.19-11.24,30.31T1194.21,211.19Zm.6-62.57q-8.43,0-13.09,5.79t-4.66,16.4q0,22.19,17.9,22.18,17.07,0,17.07-22.78Q1212,148.63,1194.81,148.62Z"/>
  </g>
</svg>
